GIL01_xslow2_RRA_states
nRows=8
nColumns=47

# SIMM Motion File Header:
name GIL01_xslow2_RRA_states
datacolumns 47
datarows 8
otherdata 1
range 0.64233000000000029000 0.64583000000000024000
endheader
time	pelvis_tx	pelvis_ty	pelvis_tz	pelvis_tilt	pelvis_list	pelvis_rotation	hip_flexion_r	hip_adduction_r	hip_rotation_r	knee_angle_r	ankle_angle_r	subtalar_angle_r	mtp_angle_r	hip_flexion_l	hip_adduction_l	hip_rotation_l	knee_angle_l	ankle_angle_l	subtalar_angle_l	mtp_angle_l	lumbar_extension	lumbar_bending	lumbar_rotation	pelvis_tx_u	pelvis_ty_u	pelvis_tz_u	pelvis_tilt_u	pelvis_list_u	pelvis_rotation_u	hip_flexion_r_u	hip_adduction_r_u	hip_rotation_r_u	knee_angle_r_u	ankle_angle_r_u	subtalar_angle_r_u	mtp_angle_r_u	hip_flexion_l_u	hip_adduction_l_u	hip_rotation_l_u	knee_angle_l_u	ankle_angle_l_u	subtalar_angle_l_u	mtp_angle_l_u	lumbar_extension_u	lumbar_bending_u	lumbar_rotation_u
      0.64233000000000029000	      0.92658301046035751000	      0.79873543073368924000	     -0.28127047348681161000	     -3.34091126099348080000	      2.41711213882953800000	      2.78987969670759030000	     28.52114915459061000000	     -6.38586354873330640000	     -2.28177834947924830000	    -28.67826045154259900000	     -0.45560565240740009000	     -0.00000000000000109619	     -0.00000000000000215894	     -6.48806474067151930000	      6.13429641036792360000	     -3.27678772339706950000	      5.67089673871690000000	      2.80468922538602030000	      0.00000000000003952220	     -0.00000000000019186424	     -0.26364858268700408000	     -2.42789723917785370000	     -4.58161364429307390000	      0.47858925257212848000	     -0.04884238761369984900	     -0.00212542022754094810	      2.04050494518685220000	     -6.63223992224775660000	     18.50921197418264800000	     15.45180960954560900000	      6.79227668109488650000	    -35.24362341532111000000	    239.22211927215730000000	    -47.74352708450108900000	     -0.00000000000001577236	      0.00000000000002574256	    -25.15919948676221600000	     -5.05993333811126340000	    -19.52163069979286900000	    -34.79938094320233000000	     51.80208321758027500000	      0.00000000000028753822	     -0.00000000000131829599	     -1.97240506236989940000	      8.39382522200728860000	      8.28230703135535510000
      0.64283000000000023000	      0.92682246994202788000	      0.79871096122446361000	     -0.28127149946874946000	     -3.33988194402473450000	      2.41380278716116910000	      2.79911901422044050000	     28.52877751734230600000	     -6.38245906342200800000	     -2.29929237799918250000	    -28.55858844602089900000	     -0.47950398741100031000	     -0.00000000000000110420	     -0.00000000000000214636	     -6.50065698823258220000	      6.13177570665703710000	     -3.28654698419722770000	      5.65348033243956300000	      2.83062558551857710000	      0.00000000000003966709	     -0.00000000000019252778	     -0.26462435439605586000	     -2.42369137648291220000	     -4.57748744389076200000	      0.47924854317887866000	     -0.04903572723683531600	     -0.00197908424701471410	      2.07663725945829740000	     -6.60515709058269800000	     18.44827754371183200000	     15.06183577319532900000	      6.82537609047756530000	    -34.81232486106833300000	    239.46543938497237000000	    -47.84917069502352400000	     -0.00000000000001568509	      0.00000000000002431730	    -25.20944369547750000000	     -5.02292053024062300000	    -19.51523465879635200000	    -34.86641486558419700000	     51.94328927922462900000	      0.00000000000029180646	     -0.00000000000134390384	     -1.93062986094638060000	      8.42971775171331390000	      8.22216612994572670000
      0.64333000000000029000	      0.92706225887087634000	      0.79868639492359483000	     -0.28127245314798488000	     -3.33883475127751290000	      2.41050698849600530000	      2.80832819453011240000	     28.53621118738083200000	     -6.37903845881156250000	     -2.31659050638502030000	    -28.43879547728308700000	     -0.50345417809774318000	     -0.00000000000000111184	     -0.00000000000000213454	     -6.51327383197126060000	      6.12927344702607170000	     -3.29630277179343520000	      5.63603014098092190000	      2.85663254942404610000	      0.00000000000003980789	     -0.00000000000019318101	     -0.26557915844961261000	     -2.41946742599299200000	     -4.57339180733465870000	      0.47990703698592219000	     -0.04922956383107148600	     -0.00183621003625042520	      2.11200424209453970000	     -6.57803377979606910000	     18.38866488205901800000	     14.67304454913566000000	      6.85675846035671110000	    -34.38001912637722800000	    239.70596843798353000000	    -47.95094413865072600000	     -0.00000000000001396480	      0.00000000000002405973	    -25.25757340537073500000	     -4.98616465760293880000	    -19.50772101776107400000	    -34.93454603501199100000	     52.08470511684435400000	      0.00000000000026958201	     -0.00000000000125363178	     -1.88853009174352770000	      8.46618286965245300000	      8.16005025480402150000
      0.64383000000000024000	      0.92730237683165972000	      0.79866173157992726000	     -0.28127333626389334000	     -3.33777006556773470000	      2.40722475706330070000	      2.81750790933740670000	     28.54345075941916600000	     -6.37560259590148440000	     -2.33367224549927070000	    -28.31888294860796100000	     -0.52745430087086287000	     -0.00000000000000111865	     -0.00000000000000212248	     -6.52591420804496640000	      6.12678949410133990000	     -3.30605451502080120000	      5.61854559825526320000	      2.88271031952632310000	      0.00000000000003993999	     -0.00000000000019379864	     -0.26651283683895499000	     -2.41522509703801050000	     -4.56932772487571090000	      0.48056464582626490000	     -0.04942388448689213900	     -0.00169684666105952950	      2.14661643800212550000	     -6.55088843756317910000	     18.33043371872576100000	     14.28543901037215500000	      6.88639518262902330000	    -33.94680420840965200000	    239.94367102602973000000	    -48.04893336914990700000	     -0.00000000000001390139	      0.00000000000002390407	    -25.30358142533554800000	     -4.94969624365282450000	    -19.49906618782398800000	    -35.00380613816255200000	     52.22629557658500900000	      0.00000000000027630871	     -0.00000000000126363123	     -1.84614444447767220000	      8.50322742528144280000	      8.09594700575938480000
      0.64433000000000029000	      0.92754282335449778000	      0.79863697096020914000	     -0.28127415058803734000	     -3.33668825902574230000	      2.40395610052258580000	      2.82665886852392800000	     28.55049682461837400000	     -6.37215235921866880000	     -2.35053717547092100000	    -28.19885228323965300000	     -0.55150249506195359000	     -0.00000000000000112580	     -0.00000000000000211055	     -6.53857705826671860000	      6.12432369768246330000	     -3.31580164368637930000	      5.60102614090247550000	      2.90885887519932900000	      0.00000000000004008221	     -0.00000000000019443959	     -0.26742526151617907000	     -2.41096410068671570000	     -4.56529619370534420000	      0.48122128060020503000	     -0.04961867835927708700	     -0.00156104383777897510	      2.18048344778028150000	     -6.52374037383609910000	     18.27364429864190900000	     13.89902334180180100000	      6.91425834377217100000	    -33.51277910949391300000	    240.17851141847302000000	    -48.14322404042821500000	     -0.00000000000001440584	      0.00000000000002319564	    -25.34745854698574500000	     -4.91354649447445800000	    -19.48924556700609000000	    -35.07422990425309500000	     52.36806844721061800000	      0.00000000000028806627	     -0.00000000000129705567	     -1.80351055278381110000	      8.54085925483270890000	      8.02984355825751270000
      0.64483000000000024000	      0.92778359793932130000	      0.79861211282512146000	     -0.28127489790992322000	     -3.33558970441901530000	      2.40070101393959500000	      2.83578180403861560000	     28.55734998112671600000	     -6.36868863767857270000	     -2.36718490566292240000	    -28.07870492025445200000	     -0.57559692272371366000	     -0.00000000000000113320	     -0.00000000000000209914	     -6.55126131067285210000	      6.12187588927972290000	     -3.32554356219427620000	      5.58347116910794930000	      2.93507841224944470000	      0.00000000000004022712	     -0.00000000000019509034	     -0.26831631092793629000	     -2.40668413833268560000	     -4.56129821804829840000	      0.48187687690304870000	     -0.04981393073675468400	     -0.00142885434949249310	      2.21361659054303230000	     -6.49660887296373430000	     18.21835737964782700000	     13.51379838117312500000	      6.94032077852956150000	    -33.07804091551930300000	    240.41045311491064000000	    -48.23390145068528800000	     -0.00000000000001441526	      0.00000000000002140024	    -25.38920002895127200000	     -4.87774678164677680000	    -19.47823456444809800000	    -35.14584916386301900000	     52.50998824839609100000	      0.00000000000029435186	     -0.00000000000130697035	     -1.76065789558532030000	      8.57908777614294670000	      7.96171979478750200000
      0.64533000000000029000	      0.92802470004757220000	      0.79858715695513993000	     -0.28127558005348596000	     -3.33447476300130100000	      2.39745948553238450000	      2.84487748651898190000	     28.56401082168457600000	     -6.36521234296158230000	     -2.38361511380368360000	    -27.95844231932524000000	     -0.59973580847719110000	     -0.00000000000000114029	     -0.00000000000000208864	     -6.56396590125308870000	      6.11944588721838920000	     -3.33527967559356450000	      5.56588008668178610000	      2.96136888895966970000	      0.00000000000004036984	     -0.00000000000019573322	     -0.26918588768880503000	     -2.40238491171479840000	     -4.55733481406601730000	      0.48253136939928798000	     -0.05000962893134624400	     -0.00130033165085318760	      2.24602626984733260000	     -6.46951413897007830000	     18.16463424227612200000	     13.12976603489546300000	      6.96455606643648300000	    -32.64268778144943900000	    240.63945931551365000000	    -48.32105052751104100000	     -0.00000000000001347056	      0.00000000000002028552	    -25.42879914175928800000	     -4.84232922772981930000	    -19.46600760068867000000	    -35.21869878207520100000	     52.65206233520988400000	      0.00000000000028914964	     -0.00000000000130283612	     -1.71761492426775940000	      8.61792345861598540000	      7.89155516357626040000
      0.64583000000000024000	      0.92826612911811468000	      0.79856210312460851000	     -0.28127619886210148000	     -3.33334379669897630000	      2.39423149033056150000	      2.85394670919516270000	     28.57047994561557400000	     -6.36172439042417630000	     -2.39982750688571710000	    -27.83806595640387700000	     -0.62391739932467105000	     -0.00000000000000114680	     -0.00000000000000207847	     -6.57668975238796880000	      6.11703349100139260000	     -3.34500936287240910000	      5.54825225994322930000	      2.98773049411896170000	      0.00000000000004051145	     -0.00000000000019638157	     -0.27003389750611451000	     -2.39806611168119410000	     -4.55340700768061700000	      0.48318471742362540000	     -0.05020575643753053000	     -0.00117553229175707900	      2.27772458109945570000	     -6.44247629240665900000	     18.11253667286130700000	     12.74692492033790500000	      6.98693848828533160000	    -32.20681588077150800000	    240.86549242902197000000	    -48.40475591394361000000	     -0.00000000000001226064	      0.00000000000001980918	    -25.46625357656111900000	     -4.80732605412642490000	    -19.45253908426393600000	    -35.29281072836501200000	     52.79425490109502300000	      0.00000000000027725597	     -0.00000000000129392504	     -1.67440189586745560000	      8.65737828969749050000	      7.81932183052748540000
